<?xml version="1.0" encoding="utf-8"?>
<!-- Generator: Adobe Illustrator 22.1.0, SVG Export Plug-In . SVG Version: 6.00 Build 0)  -->
<svg version="1.1" id="Calque_1" xmlns="http://www.w3.org/2000/svg" xmlns:xlink="http://www.w3.org/1999/xlink" x="0px" y="0px"
	 viewBox="0 0 500 500" style="enable-background:new 0 0 500 500;" xml:space="preserve">
<style type="text/css">
	.st0{fill:#F9F8FA;stroke:#FFFFFF;stroke-miterlimit:10;}
	.st1{fill:#FFFFFF;stroke:#FFFFFF;stroke-miterlimit:10;}
	.st2{fill:#F9F8FA;stroke:#FFFFFF;stroke-width:0.25;stroke-miterlimit:10;}
	.st3{fill:#F9F8FA;stroke:#FFFFFF;stroke-width:0.15;stroke-miterlimit:10;}
</style>
<path class="st0" d="M212,223.5c-0.5-0.2-1.8-0.6-1.9-1.4c-0.1-0.9,1.4-1.7,2-2c3.9-2.4,7.9-4.8,11.8-7.2c-0.4,2.5-1.9,4.6-1.9,4.6
	c1.8,6,8.4,10.3,11.1,16c3.4,7.1,0.2,15.1-1.5,22.6c-1.7,7.5-1.1,16.7,6.7,20.9c2.1,1.1,4.8,1.7,7.2,1.1c4-1.2,5.3-5.2,6-8.6
	c0.7-3.4,1.4-6.8,2.1-10.2c0.1-0.6,0.4-1.3,1.1-1.3c0.7,0,0.2,1.2-0.2,0.7c-2.1,7.9,5.6,12.1,3.5,20c-0.5,1.7-0.9,3.7,0.4,5.1
	c1.3,1.4,3.9,1.7,5.9,1.1c2-0.6,3.6-2,4.9-3.4c7.7-7.8,11.2-17.8,13.7-27.7c1.4-5.5,2.6-11.2,1.4-16.7c-2.7-12.7-16.9-22-20.4-34.6
	c-0.3,0.8-0.5,1.6-0.8,2.4c4.1,8.2,18,11.5,25.8,17.7c1,0.8,2.2,1.7,3.7,1.8c1.5,0.1,3-0.6,4.2-1.4c7.4-4.5,14.8-16,14.8-16
	c1.8-5.8,3.6-11.5,5.4-17.3c0.2,0.4,0.5,0.9,0.7,1.3c1.7,3,5.3,1,5.1,4.3c0,0.6,0,1.1,0.3,1.6c0.6,0.8,2,1,3.1,0.6
	c1.1-0.4,1.8-1.1,2.6-1.9c3.1-3.2,6-6.6,8.7-10.1c-0.2,0.4-0.5,0.7-0.7,1.1c0.6,3.2,2.2,3.5,3.6,6.5c-0.2-1.1-26.4,32.2-35.3,52.7
	c-10.8,25,1.6,27.4-9.3,50.2c-8.4,17.5-16.4,19.5-25.3,40.6c-3,7.2-7.6,18.3-8.1,33.3c-0.3,9-0.7,25,10.1,42.4
	c11,17.8,27.8,27.6,36.2,31.8c-10.1-1.5-20.2-3-30.4-4.4c-9.9-1.4-23.1-0.6-25.7,10.3c-17.9-9.1-39.1-9.9-57.5-2.1
	c3.7-6.4,7.4-12.8,11.1-19.2c-0.4,0.8,24.5-74.9,13.4-110.9c-2.2-7.1-5.3-13.7-7.6-20.8c-2.3-7.1-3.9-14.8-8.1-20.5
	c-2.5-3.5-2.7-2.6-12-10.9c0,0-20.4-18.3-21.3-27.4c0-0.3-0.1-2.1-0.7-2.2c-0.2,0-0.4,0.2-0.4,0.2c-0.7,0.9,0.6,3.4,1.1,1.9
	c-1.3-1.3,7.1-3.7,5.8-5c9.4,7.9,18.9,15.9,28.3,23.8c2.5,2.1,5.3,4.3,8.3,3.7c3.5-0.7,5.7-5,6-9.1c0.2-4.2-1.1-4.5-2.5-12
	C215.4,232,215.7,225,212,223.5z"/>
<path class="st1" d="M222.5-118.3c0.3,0.1,0.7,0.1,1,0.2c1.6,2.6,1.5,6,0.4,8.8c-1,2.9-2.9,5.4-4.7,7.8c-0.9,1.2-1.8,2.4-3.1,3.2
	c-2.6,1.5-5.9,0.8-8.7-0.4c-2.9-1.3-5.6-3-8.4-4.7c-4.7-2.8-9.6-5.3-14.7-7.5l1.7,1.6c-4.1-1.2-8.2-2-12.5-2.3
	c-1.1-0.1-2.2-0.1-3.1,0.4c-2.3,1.3-1.8,4.5-1.9,7.1c-0.2,4-2.7,7.8-6.3,9.6c-3.6,1.7-8.2,1.3-11.4-1.1l-0.2,1.6
	c-4.1,1.1-5.9,5.7-7.2,9.7c-1.3,4-3.5,8.6-7.7,9.2c-3.1,0.4-6-1.6-9.1-2.1c-2.9-0.4-5.8,0.5-8.5,1.5c-3.4,1.2-6.7,2.3-10.1,3.5
	l0.1,0c-1.4,4.6-8.5,6.7-11.5,2.9c-1.8-2.2-2.1-5.6-4.6-6.8c-3.8-1.8-7.4,3.4-11.5,3.6c-2.6-6.1,4.6-13.1,2.2-19.3
	c-3.2-8.2-17.7-4.4-22.3-11.9c-3-4.9,0.3-11.1,4-15.5c3.8-4.6,8-8.8,11.1-13.8c3.1-5,5.1-11.1,3.8-16.9c-0.9-4.2-3.5-8.8-1.3-12.5
	c-4.3-1.7-3.4-8.1-1.2-12.1s6.4-6.6,10-9.6c11.1-9.1,17.6-22.4,25.6-34.4c2.7-4,5.7-8.1,10.1-10.3c2.7-1.4,5.8-1.9,8.8-2.4
	c7.7-1.3,15.9-2.6,23.1,0.4c1.9,0.8,3.7,1.9,5.8,1.9c2.4,0,4.5-1.4,6.5-2.8c12.1-8.1,26.3-13,40.8-14.2c2.8-0.2,5.9-0.3,8.1,1.6
	c1.4,1.2,2.2,3,2.8,4.7c1.8,4.9,2.9,10,3.4,15.2c0.2,2.2,0.3,4.4,1.5,6.3c1.6,2.7,5,3.7,8.2,3.7c3.1,0,6.2-0.9,9.3-1.3
	c10.2-1.1,20.8,4.3,25.9,13.3c4.4,7.9,4.5,17.7,8.5,25.9c4.5,9.5,14.3,16.2,24.7,17c0.9,0.1,2,0.1,2.7,0.7c0.6,0.5,1,1.2,1.3,1.9
	c4.8,12.7-10.2,25.9-7,39.1c1.2,4.8,4.6,10.2,1.5,14.1c-1,1.3-2.6,2-4.2,2.6c-8.6,3.4-18,4.8-27.2,4.3c-1.9-0.1-3.9-0.3-5.8,0.2
	c-4.2,1.2-6.5,5.5-9,9.1c-0.4,0.6-0.9,1.2-1.6,1.6c-1.6,0.8-3.6-0.4-4.8-1.8c-5.6-6.2-5.5-15.6-3.4-23.7"/>
<path class="st0" d="M708.4,261.6c0-0.7,0.4-1.2,0.9-1.3c0.5-0.1,1,0.3,1,0.4c0,0-0.1,0-0.3,0.1c-0.5,1.4,1,2.9,2.7,3.3
	c1.7,0.4,3.5-0.1,5.1-0.6c1.6-0.6,3.2-1.3,4.9-1.5c-2.4,1.7-5.2,2.9-8.2,3.7c-3.8,0.1-13.8,0.9-16.4,6c-0.1,0.2-0.5,0.5-0.6,2.3
	c-0.2,6,0.3,12,1.5,18c0.3,1.5,1,3.2,2.7,3.5c0.7,0.1,1.4-0.1,2.1-0.3c3.4-1,6.9-2.1,10.3-3.1c-0.7-0.2-1.6-0.1-2,0.4
	c-5.3-0.6-5.8,3.5-10.6,5.3c-1.7,0.7-3.4,1.5-4.3,2.8c-0.7,0.9-0.9,2-1.1,3.1c-1,4.7-1.3,9.4-0.9,14.1c0.2,2.2,0.7,4.8,3,5.9
	c1.3,0.7,3,0.7,4.5,0.6c4.1-0.2,8.1-1.1,11.8-2.4c-6.6,1.7-8.2,6.5-13.9,9.8c-1.4,0.8-2.9,1.8-3.7,3.1c-0.8,1.3-0.8,2.8-0.8,4.2
	c0,10,0,20,0,30c6.1-2.4,11.8-5.4,17-9c-5.7,4.6-13.8,8.7-15.7,15.2c-0.7,2.3-0.2,4.7,0.3,7.1c6.5,31,9.5,62.5,8.7,93.9
	c-7.8-3.1-15.6-6.2-23.4-9.3c-0.6-4,0.3-8.1,2.4-11.6l0.3,0c2.9-38.8,2.8-77.8-0.4-116.6c-0.1-1.3-0.2-2.6-1.1-3.7
	c-1.1-1.3-3.1-1.9-4.9-2.3c-9.5-2.4-19.2-4.2-29-5.5c-0.7-0.1-1.6-0.3-1.8-0.8c-0.3-0.6,1-1.1,1.2-0.6c-0.8-0.5,0.9-3.6,0.1-4.1
	c10.2,0.7,20.4,1.3,30.6,2c1,0.1,2.1,0.1,3-0.4c1-0.6,1.3-1.7,1.5-2.7c1.1-6.2,1.6-12.5,1.3-18.7c0-1-0.1-2.1-0.7-3.1
	c-0.7-1.1-2.1-1.9-3.4-2.5c-5-2.5-10-5-15-7.5c0.7,0.2,1.4,0.3,2.1,0.5l4.6-1.9c2.2,0.1,4.3,1.1,6.4,1.7s4.8,0.7,6.3-0.7
	c1.1-1.1,1.2-2.6,1.2-4.1c0.2-18.2,0-36.5-0.3-54.7c-1.5,13.2,4.1,20.8,6,34c0.3,2.1,1.2,4.8,3.8,5.1c1.3,0.1,2.5-0.4,3.6-1
	c2.8-1.4,5.5-2.8,8.3-4.2C708.7,262.7,708.6,262.2,708.4,261.6z"/>
<path class="st2" d="M678.2,359.2c-0.2,2-0.2,4,0.2,5.9c-1.5-0.6-2.9-1.5-3.7-2.6c-0.2,1.6-0.9,3.1-2,4.4c-2.4-1.6-4.3-3.6-5.2-5.8
	c0.2,0.9,0.3,1.9,0.5,2.8c-0.5-0.6-1.1-1.3-1.6-1.9c-0.8,2.6-0.9,5.3-0.4,7.9c-1.7-2.4-3.1-4.9-4-7.6c-0.1,1.6-0.2,3.2-0.3,4.8
	c-2.2-2.8-3.9-5.7-5.1-8.8c-0.8,3.2-1.5,6.4-2.3,9.5c-0.6-1.8-1.2-3.6-1.8-5.4c0.2,2-0.1,4-0.8,5.9c-0.8-2.4-1.8-4.9-3.1-7.2
	c-3.5,2.6-9.4,2.4-14.2,1.3c-4.9-1.1-9.5-3-14.6-3.2c7.7-3.2,17.3-2.1,26.1-2.9c13-1.3,24.1-6.8,34.8-12.1c1.2,2.2,2.3,4.4,3.3,6.6
	c0.2,0.5,0.4,1.2-0.2,1.5c-0.6,0.3-1.4-0.6-0.7-0.7c0.4,0.9,0.9,1.8,1.3,2.7c-0.8,0.1-1.7,0.1-2.5,0.2c3.9,1.2,7.3,3.3,9.5,6
	c0,0.3-6.9-3.7-7.4-4.2c1.3,2,3.7,4.4,3.3,6.4c-0.3,1.4-3.2,1.9-3.1,4.3C681.5,364.8,679.6,361.9,678.2,359.2z"/>
<path class="st2" d="M658.7,343.1c-5.3,1.1-11,1.7-16.2,0c-2.5-0.8-4.9-2.1-7.6-2.2c2.2,2.7,4.4,5.5,6.5,8.2
	c1.3-0.7,2.4-1.7,3.2-2.9c1,1.4,2.2,2.7,3.6,3.8c0.5-1,1-2.1,1.5-3.1c1.4,1.5,2.8,2.9,4.2,4.4c0-1.4-0.1-2.9-0.1-4.3
	c1.4,1.4,3,2.5,4.9,3.3c0.3-1.3,0.6-2.6,0.9-3.9c1,0.7,2.5,1.1,3.8,0.8c1.3-0.3,2.3-1.4,2.2-2.6c1,1.4,2.1,2.7,3.2,4
	c0.4-1.4,0.9-2.8,1.3-4.2c0.9,1,1.9,1.8,3.1,2.4c1.8-2.2,1.2-11.7-2.8-10.8c-1,0.2-2.3,3.3-3.2,3.9
	C665.1,341.7,661.5,342.5,658.7,343.1z"/>
<path class="st2" d="M628.6,302.7c0.9,6.8,2.6,13.5,5.1,20c1-2,2.1-4,3.1-6c-0.3,4.2,0.2,8.4,1.5,12.4c1.6-2.5,2.9-5.2,3.7-8
	c-1.6,3.2-2.5,6.7-2.5,10.3c0.9-3.6,2.4-7.1,4.4-10.3c1,5.3,2,10.7,3,16c2.5-3,4-6.5,4.4-10.2c0.1,3.8,1.3,7.5,3.4,10.8
	c1.3-1.5,2.3-3.2,2.8-5c1.2,2.3,2.7,8.3,5.9,8.1c3-0.2,3.8-5.4,4.2-7.3c0.9-4.8,0.6-9-4.6-11.7c-5.9-3-13.3-3.2-19.4-6.4
	C639.5,313.3,629.2,307.3,628.6,302.7z"/>
<path class="st2" d="M749,306.5c-0.9,3.8-1.2,7.8-0.9,11.8c-0.5-1.1-1.7-1.9-3.1-2.1c-0.3,2.9,0.3,5.9,1.6,8.6
	c-1.4-1.3-3-2.3-4.8-3.1c0.8,3.8,1.7,7.7,2.5,11.5c-3.3-3.4-6.1-7.1-8.5-11c1,4.5,1.4,9,1.3,13.5c-2.7-3-4.6-6.5-5.4-10.3
	c-0.3,5-1.3,10-3,14.8c-2.6-3.6-4.6-7.6-5.8-11.8c-2.4,4.4-4,9.1-4.8,13.9c-1.3-3.8-2.1-7.8-2.4-11.8c-0.1,2.1-0.5,4.1-1,6.1
	c0.5-3.8,0.2-7.6-0.8-11.3c-1.6,1-2.5,2.6-3.7,4c-4.7,5.4-9.6-1.4-4.7-5.5c3.4-2.8,9.1-1.9,13.5-2.3c6-0.5,11.7-2.2,16.9-4.8
	C739.6,315.1,748.1,310.5,749,306.5z"/>
<path class="st2" d="M730.8,345.4c1.2-1.7,1.4-3.8,2-5.7c0.9-2.9,2.7-5.6,5.3-7.7c-0.8,6-0.8,12.1,0,18.1c0.2,1.2,0.3,2.5-0.7,3.4
	c-1,0.9-2.8,0.7-3.9,0c-1.2-0.7-1.9-1.9-2.5-3c1.8,2.2,3.6,4.4,5.4,6.6c-1.7-1-3.5-2-5.2-3.1c0.1,2.8,0.1,5.6-0.1,8.4
	c-4.3-2.5-6.9-6.7-9.3-10.7c1.9,6,3.2,12.2,4,18.4c-2.8-4.2-4.6-8.9-5.3-13.7c1.9,5.1,3,10.4,3,15.7c-0.8,0.6-2-0.2-2.6-1
	c-2.3-2.8-3.9-6.1-4.8-9.5c1.2,3.8,1.4,7.8,0.6,11.7c-2,0-3.7-1.4-4.4-3s-0.8-3.4-0.8-5.1c0.6,1.5,0.8,3,0.6,4.5
	c-3.1-2-6.8-5.8-6.8-9.3c0-4,2.7-3.7,5.8-5.2c3.8-1.8,6.5-4,10.7-5.3C725,348.9,728.8,348.2,730.8,345.4z"/>
<path class="st2" d="M709.7,298.2c0.8,2.7,1.6,5.5,2.4,8.2c0.8-2.7,1.6-5.4,2.5-8.2c0.8,2.2,2,4.4,3.4,6.4c0.2-2.3,0.1-4.7-0.4-7
	c1.5,2.2,3.7,4,6.2,5.2c-0.3-2.6-0.5-5.3-0.8-7.9c2,2,4.3,3.8,6.9,5.2c0.4-2.6,0.3-5.3-0.2-7.9c2,0.7,4,1.4,6.1,1.9
	c1.5-1.8-1.4-4.8,0.3-6.3c0.8-0.7,2.3-0.7,3.2-1.4c1-0.8,0.7-2.3,1.4-3.3c0.8-1.1,2.4-1.4,3.2-2.5c1.1-1.7-0.8-3.8-1-5.8
	c-2.6,8.8-13,15.3-23.4,14.7c-7.8-0.5-9.4,1.2-11.9,7.2c-1.8,4.2-3,7.2-3,11.9C706,306.6,710.4,300.6,709.7,298.2z"/>
<path class="st2" d="M634.4,279.8c0.5-0.2,1.2-0.3,1.9-0.2c5,1.1,4.5,15.1,6.5,15.2c1,0,2.7-3.2,3.3-4.5c0-0.1,0.2-0.3,0.2-0.3
	c-0.8,2.9-1.4,5.9-1.7,8.9c0.3-1.6,0.8-3.2,1.5-4.6c-0.1,2.5,0.4,4.9,1.5,7.2c2.1-3.2,3.2-6.8,3.4-10.5c0.9,3.4,1.4,6.9,1.7,10.3
	c0.9-3.2,1.4-6.4,1.7-9.6c0.1,4,0.8,8,1.9,11.8c1.2-4.4,2.3-8.7,3.5-13.1c0.7,5.2,2,10.3,3.9,15.3c1.1-4.1,1.9-8.3,2.3-12.5
	c1.3,4.5,2.6,8.9,3.9,13.4c2.6-2.2,2.3-5.9,3.1-9c0.1-0.5,0.4-1,0.8-1.3c0.9-0.5,2.1,0.2,3.1,0.3c1.5,0.2,3-0.7,3.7-1.9
	c0.7-1.2,0.6-2.6,0.3-3.9c-1.4-5.4-7.8-9.6-14.2-9.1c-2.8,0.2-5.5,1.3-8.3,1.6c-4.3,0.5-8.8-0.8-12-3.4c-1.3-1.1-2.5-2.4-4.2-3.1
	c-1.7-0.6-4.1,0-4.3,1.6c-2-0.9-3.7-2.4-4.7-4.2C633.8,276.1,634.1,278,634.4,279.8z"/>
<path class="st3" d="M708.2,262.1c0.3,0.8,1.2,1.7,2.1,1.3c0.5-0.2,0.6-0.7,0.8-1.1c0.6-1.9,1-3.9,1.2-5.8c0.6,2.7,2,5.3,4,7.4
	c0.6-1.7,0.8-3.5,0.6-5.3c0.4,3.6,1.5,7.2,3.2,10.6c0.3,0.5,0.8,1.2,1.5,1c0.6-0.1,0.8-0.8,0.8-1.4c0-4,0-8,0.1-12
	c0,3.3,1,6.6,3,9.3c1.2-0.7,1.4-2.1,1.4-3.3c0-3.4,0.2-4,2.5-1.6c0.4-2.8,0.2-5.7-0.8-8.5c1.1,1.8,2.3,3.6,3.4,5.4
	c0.4,0.7,0.9,1.4,1.8,1.7c0.9,0.3,2-0.3,1.9-1.1c-0.7-2.9-1.5-5.8-2.2-8.7c-0.4,0.9,1.3,1.7,2.3,1.1s1.2-1.6,1.4-2.6
	c0.3-1.4,0.5-2.8,0.8-4.2c-1.3,1.1-2.6,2.2-3.9,3.3c-2.7,2.2-5.4,4.5-8.8,5.9c-2.6,1.1-5.4,1.5-8.2,2c-3.1,0.5-6.6,0.8-9.6,1.7
	C707.4,258.9,707.6,260.6,708.2,262.1z"/>
<path class="st2" d="M684.6,256.9c-0.8,4-2.6,7.9-5.3,11.2c-1.5-4.1-2.1-8.4-1.6-12.6c-0.9,2.4-1.7,4.8-2.6,7.3
	c-0.1-2.9-0.3-5.9-0.4-8.8c-0.7,0.9-1.4,1.8-2.5,2.4c-1.1,0.6-2.5,0.7-3.5,0c-2-1.4-0.3-4.6-2-6.4c-3.2,1.3-7.2,0.9-10-0.9
	c-2.8-1.9-4.4-5.1-3.9-8.1c7.2,6.1,17.7,8,27.5,9.6c2.8,0.5,5.7,1,8.5,1.4L684.6,256.9z"/>
<path class="st2" d="M700.3,247.3c1.2,1,1.7,2.6,2.4,3.9c0.7,1.4,1.8,2.8,3.5,3c0.6-2.6,0.6-5.2,0.2-7.9c0.7,1.2,1.8,2.2,3.1,2.9
	c0.1-1.8,0.3-3.7,0.4-5.5c1.3,0.7,2.6,1.3,3.9,2c0.3,0.1,0.6,0.3,0.8,0.1c0.3-0.1,0.3-0.6,0.3-0.7c-0.1-1.6-3.2-4.2-2.8-6
	c0.2-1,1.4-0.8,2.2-2.1c1-1.6-0.4-6-0.3-4.8c0.2,2.2-12.1,10.1-14.1,12.2c-2.8,2.9-4.7,7.3-2.5,11
	C699.1,253.7,699.5,249.7,700.3,247.3z"/>
<path class="st2" d="M666.5,224c0.7,4,1.7,7.9,2.9,11.7c0.8-0.5,1.7-0.9,2.6-1.2c0.8,1.5,1.6,3,2.4,4.5c0.8-0.4,1.4-1.1,2.1-1.7
	c2.2,0.9,5.8,7.9,8.6,6.9c2.1-0.7-0.6-3.6-1.4-4.7C679.3,234.2,667.7,230.9,666.5,224z"/>
<path class="st2" d="M673.1,224c-0.3,0.4-0.2,1,0.2,1.3c-0.7-2.4-1.5-4.8-2.4-7.1c3.9,3.2,7.8,6.3,11.7,9.5c0.9,0.8,2.3,1.6,3.4,1.1
	c-3-3.8-6.1-7.5-9.1-11.3c2.1-1.4,2.5-4,2.3-6.3c-0.3-2.3-1-4.6-0.5-6.9c4.2,4.9,8.7,10.4,8.4,16.5c0,1.2-0.3,2.4-0.1,3.5
	c0.2,1.2,0.9,2.4,2.2,2.8c0.4-0.3,0.7-0.7,0.8-1.1c-0.1,3-0.2,5.9-0.2,8.9c1.2-2.6,1.8-5.3,1.8-8.1c0.5,2.3,1.3,4.6,2.2,6.8
	c0.1-1.6,0.2-3.3,0.2-4.9c1.5,1.3,3.2,2.4,5,3.2c0.5,0.2,1.1,0.4,1.5,0.1c0.5-0.3,0.4-1.1,0.1-1.6c-1.2-2.8-2.5-5.6-3.8-8.4
	c0.9,0.7,2.1,1,3.3,1c-1.2-2.9-3.1-5.7-5.4-8.1c1.9,2-4.7,13.1-7.2,14.5C682.3,232.3,676.7,227,673.1,224z"/>
<path class="st2" d="M685.1,280c-1,2.7-2.1,5.3-3.1,8c-0.6-2.8-1.1-5.6-1.7-8.4c-1,2.2-2.4,4.2-4,6c0-2.3,0.4-4.7,1.1-6.9
	c-1.7,2-4,3.6-6.7,4.5c0.5-2.6,1-5.2,1.5-7.8c-2.2,1.8-4.6,3.4-7.3,4.5c-0.1-2.7,0.2-5.3,0.9-7.9c-2,0.5-4.1,1-6.2,1.3
	c-1.3-1.9,1.9-4.6,0.3-6.3c-0.8-0.8-2.2-0.9-3-1.7c-0.9-0.9-0.5-2.4-1.1-3.4c-0.7-1.1-2.3-1.6-2.9-2.8c-1-1.8,1.2-3.7,1.5-5.7
	c1.8,9,11.5,16.4,21.9,16.8c7.8,0.3,9.3,2.1,11.2,8.3c1.4,4.3,2.4,7.5,1.9,12.1C688,288.7,684.2,282.3,685.1,280z"/>
<path class="st2" d="M668.2,383.1c-1.4,2.3-2.3,4.8-2.9,7.3c-1.6-1.2-2.7-2.7-3.2-4.4c-1.1,1.8-2.8,3.4-4.9,4.7
	c-2.2-2.7-3.3-5.8-3.3-8.8c-0.3,1.2-0.6,2.4-0.9,3.6c-0.3-1-0.6-1.9-0.9-2.9c-2.3,2.9-3.9,6.1-4.7,9.5c-0.9-3.5-1.1-7-0.8-10.5
	c-1,1.9-2,3.8-3,5.8c-1.2-4.1-1.8-8.2-1.5-12.4c-2.7,3.6-5.3,7.2-8,10.9c0.2-2.4,0.5-4.8,0.7-7.1c-0.9,2.5-2.3,4.8-4.2,6.9
	c0.3-3.2,0.4-6.5,0-9.8c-4.9-3.2-9.7-6.4-14.6-9.7l0,0c4.1,1.2,8.8,2.2,13.9,3c21,3.1,38.8-0.4,49.5-3.4c0.3,3,0.4,6,0.5,9.1
	c0,0.7-0.2,1.5-1,1.7c-0.9,0.2-1.4-1.2-0.5-1c0.1,1.2,0.1,2.4,0.2,3.7c-1.1-0.2-2.1-0.4-3.2-0.6c2.9,1.8,6.2,4.2,9.3,7.5
	c1.5,1.5,2.7,3,3.7,4.3c2.8,4.9,4,7.5,3.5,7.7c-0.8,0.3-5.8-5.2-14.9-16.6c0.5,2.9,2.2,6.5,0.5,8.9c-1.1,1.6-4.9,1.2-6.1,4.2
	C669.3,391,668.6,386.9,668.2,383.1z"/>
<path class="st0" d="M729.7,370.6c1,0.2,2.2,0.4,3.1,0.1c1.1-0.3,1.8-1.1,2.5-1.8c3-2.7,8-3.4,12-5.1c3.8-1.7,6.8-4.3,9.6-6.9
	c-1.1,3.3-2.9,6.3-5.4,9.1c-0.3,0.3-0.5,0.6-0.6,0.9c0,0.3,0.1,0.6,0.2,0.9c1.1,2.6,2.2,5.1,3.3,7.7c-1.6-1.6-3.2-3.2-4.7-4.8
	c0.5,3.2,1.1,6.4,1.6,9.6c-1.7-2.6-3.4-5.3-5.1-7.9c0.3,3.4,0.2,6.9-0.4,10.2c-0.2,1.2-0.6,2.5-2,3.1c-1.8-4.4-0.6-9.4-3.1-13.6
	c-0.2,1.3-0.4,2.5-0.6,3.8c-0.3-1.3-1.1-2.6-2.3-3.6c-1,1.5-1.1,3.3-0.1,4.9c-0.6-0.4-1.2-0.8-1.7-1.2c-0.4,1.8-0.9,3.6-1.3,5.4
	c-1.2-1.1-1.9-2.4-2-3.8c-0.1,1.9-0.8,3.7-2,5.3c0.1-2-0.2-4-0.9-5.9c-1.3,4.3-2.7,8.8-6.3,12.3c1.1-4.2,1.8-8.4,2.1-12.7
	c-1.2,3-2.9,5.9-5,8.7c-0.9,1.2-2.1,2.5-3.8,2.9c-1-2.8-0.8-5.8,0.4-8.5c-0.5,3.4-2.7,6.5-6,8.6c0.8-4,1.6-7.9,2.3-11.9
	c-1.4,2.1-3,4.2-4.7,6.2c-0.9,1.1-2.1,2.3-3.8,2.3c-1.6,0-3-1.2-3.3-2.4c-1-4.3,4.6-8.2,8.9-9.9
	C716.5,370.4,723.3,369.7,729.7,370.6z"/>
<path class="st0" d="M143.2,272.1c2.3-3.1,2.5-6.9,0.5-10c-7.6,3.7-13.8,8.8-18.2,14.6c3.4-5.5,3.5-12,0.4-17.6
	c-8.8,0.4-17.1,4.3-21.1,9.9c2.9-4,4.1-8.6,3.5-13.1c-7.7,0.4-15.3,0.8-23,1.2c4.4-2.8,5.5-7.9,2.6-11.5c-3-3.6-9.7-5.4-15.3-4.1
	c3.1,0.6,6.6-1,7.2-3.2c-3.4-2.8-7.6-5.1-12.3-6.7c5.1-0.2,10.2-0.4,15.3-0.7c-3.5-7.5-10.1-14.2-18.7-19.1
	c6.4,1.1,11.6-4.8,9.9-9.3s-7.3-7.6-12.6-10.4c6.2,1.3,13.5-1.7,15.1-6.1c1.6-4.4-2.8-9.5-9.1-10.5c4.8,0.1,9.6,0.2,14.5,0.3
	c2.2-6.4,0.8-13.3-3.9-19c2.5,5.7,15.5,5,20.1,0s3.4-11.5,1.9-17.4c8.7,1.9,18.9-0.6,24.2-5.8s5.3-12.9-0.1-18.1
	c8.2,0,16.2-3.5,19.9-8.7c-5.8-4.4-13.4-7.6-21.6-9.3c9.2,1.1,14.5-10.2,6.2-13.2c4.6,0.8,9.2,1.5,13.8,2.3c2.7-3,2.6-7.1-0.2-10
	c2.3,3,6,5.5,10.3,7c1.7-5.7,0.8-11.8-2.4-17.1c1.8,4.1,5.4,7.8,10.1,10.5c4.1-7.2,5.6-15.3,4.1-23c2.9,7.1,8.5,13.6,16.2,18.6
	c2.6-4.3,3.5-9.1,2.8-13.8c3,5.7,9.7,10.3,17.8,12.2c1.4-7,1.9-14.2,1.4-21.2c2.2,4.6,5.8,9,10.4,12.6c1.5-3.3,2.2-6.8,1.9-10.2
	c6.4-2.6,10.2-8.2,8.9-13.4c1.8,6.7,6.7,13,13.8,17.7c1.4,0.9,3.2,1.8,5,1.5c2.1-0.4,2.9-2.2,3.4-3.7c1.3-3.9,2.6-7.9,3.9-11.8
	c-2.7,8.9,2.3,18.7,12.4,24.2c2.3-6.7,4.6-13.4,6.8-20.1c1.6,5.1,3.9,11,10.6,13.2s16.4-4,11.3-7.8c-0.2,6.2,6.1,12.1,14.4,13.7
	c1.8-2.2,3.7-4.5,5.5-6.7c-1.9,7.8,12.5,14.7,22,10.5c-6.3,5.1-7.7,13-3.3,19c6.4-2.4,11-7.2,11.9-12.3c-3.5,4-4.4,9.7,0,13.3
	s14.5,2.7,15.8-1.9c-8.4,2-6.1,11.9,2,14.5c8,2.5,17.3,0.2,25.5-2.2c0.1,5.6,13.6,7.6,16.8,2.4c-3.8,2.5-7.8,5.4-8.1,9.1
	s5.7,7.5,9.9,5.4c-1.9,2.6-3.9,5.8-1.9,8.4s9.5,1.6,8.3-1.3c-3.7,5.3,0.5,12.6,8.3,14.5c-5-1.9-10,4.1-6.8,7.5
	c3.2,3.4,9.7,4,15.4,4.1c-2.5,0.6-5,1.2-7.4,1.8c4.7,5.5,11.6,10,19.6,12.9c-5.7,0.5-11.5,1-17.2,1.5c2.5,4.8,6.3,9.2,11.2,13
	c-3.2-2-7.7-2.8-11.9-2.3c2.9,4.4,5.7,8.8,8.6,13.1c-4.1-0.2-8.2-0.5-12.2-0.7c0.1,6.1,1.8,12.2,4.9,17.9c-1.1-3.9-5.2-7.2-10.5-8.4
	c-6.3,8.9-7.6,19.6-3.5,29.1c3.4-5.4-3.5-12.5-11.7-12.1s-14,7.9-9.8,13c2.2-5.6-9.1-9.8-16.4-7.4c-7.4,2.5-10.9,8.4-13.8,13.8
	c0.9-4.9,0.3-10-1.5-14.7c-3.6,1.2-6.6,3.3-8.3,5.8c2.4-7.8,2.2-15.9-0.5-23.6c-5.3,0.7-9.8,3.8-10.9,7.6c4.3-2.7,7.7-6.5,7.5-10.6
	c-0.2-4.1-4.9-8.1-10.7-8s-10,5.7-6.1,8.7c0.2-2.7-0.4-5.5-1.6-8.1c-6.8,7.6-11,16.3-12,25.3c-1.2-4.9-3.9-9.6-7.8-13.7
	c-3.3,4.5-5,9.6-4.9,14.7c-0.6-6.7-5.9-13.1-13.9-16.8c-4,3.3-5.8,7.8-4.8,12.1c-0.1-3.5-2.8-6.8-6.9-8.7c-4.7,5.6-5,12.8-0.9,18.6
	c-0.6-2.5-1.3-5.2-4-6.8c-2.7-1.7-7.9-1.2-8.6,1.2c0.8-9.4-2-19-8.1-27.4c-4.2,0.7-7.2,3.9-6.4,6.9c2.7-8.1-3-17.3-13.2-21.3
	c-3.1,3.5-3.7,8-1.6,11.9c-2.6-3.2-8.1-5.1-13.3-4.6c-0.5,6.7,2.3,13.5,7.8,19c-3.4-1.6-6.7-3.2-10.1-4.8c8.2,4.9,18.8,7.9,29.5,8.3
	c-8.1-1.5-17.2,0.1-23.4,4c6.1,3.2,13.8,5,21.4,4.9c-9.4-0.8-19.2,2.2-24.8,7.6c5.3,3.6,12.2,6.1,19.5,6.9c-6.2-2.6-13.4-4-20.7-4.1
	c-1.2,7-0.3,14.1,2.7,20.8c-0.5-8.2-3-16.4-7.6-23.9c-3.1,5.3-4.4,11.2-3.7,17c2.8-7.7,0.2-16.2-6.8-22.4c-5.5,7-8,15.1-7,23.1
	c0.6-4.5-0.5-9.1-3.1-13.2c-8.7,3.8-12.6,12.4-8.4,19c5.2-4.5,6.4-11.2,2.9-16.5c-0.3-0.4-11.4,14.9-11.8,17.2
	c-1.2,6.3,0.8,12.7,3.8,18.4c-7.9-1.8-10.6-7.8-15.5-11.9C151.7,256.1,144.4,264.1,143.2,272.1z"/>
</svg>
