<?xml version="1.0" encoding="utf-8"?>
<!-- Generator: Adobe Illustrator 22.1.0, SVG Export Plug-In . SVG Version: 6.00 Build 0)  -->
<svg version="1.1" id="Calque_1" xmlns="http://www.w3.org/2000/svg" xmlns:xlink="http://www.w3.org/1999/xlink" x="0px" y="0px"
	 viewBox="0 0 500 500" style="enable-background:new 0 0 500 500;" xml:space="preserve">
<style type="text/css">
	.st0{fill:#F9F8FA;stroke:#FFFFFF;stroke-miterlimit:10;}
	.st1{fill:#FFFFFF;stroke:#FFFFFF;stroke-miterlimit:10;}
	.st2{fill:#F9F8FA;stroke:#FFFFFF;stroke-width:0.25;stroke-miterlimit:10;}
	.st3{fill:#F9F8FA;stroke:#FFFFFF;stroke-width:0.15;stroke-miterlimit:10;}
</style>
<path class="st0" d="M-283.4,164.9c-0.5-0.2-1.8-0.6-1.9-1.4c-0.1-0.9,1.4-1.7,2-2c3.9-2.4,7.9-4.8,11.8-7.2
	c-0.4,2.5-1.9,4.6-1.9,4.6c1.8,6,8.4,10.3,11.1,16c3.4,7.1,0.2,15.1-1.5,22.6c-1.7,7.5-1.1,16.7,6.7,20.9c2.1,1.1,4.8,1.7,7.2,1.1
	c4-1.2,5.3-5.2,6-8.6c0.7-3.4,1.4-6.8,2.1-10.2c0.1-0.6,0.4-1.3,1.1-1.3c0.7,0,0.2,1.2-0.2,0.7c-2.1,7.9,5.6,12.1,3.5,20
	c-0.5,1.7-0.9,3.7,0.4,5.1c1.3,1.4,3.9,1.7,5.9,1.1c2-0.6,3.6-2,4.9-3.4c7.7-7.8,11.2-17.8,13.7-27.7c1.4-5.5,2.6-11.2,1.4-16.7
	c-2.7-12.7-16.9-22-20.4-34.6c-0.3,0.8-0.5,1.6-0.8,2.4c4.1,8.2,18,11.5,25.8,17.7c1,0.8,2.2,1.7,3.7,1.8c1.5,0.1,3-0.6,4.2-1.4
	c7.4-4.5,14.8-16,14.8-16c1.8-5.8,3.6-11.5,5.4-17.3c0.2,0.4,0.5,0.9,0.7,1.3c1.7,3,5.3,1,5.1,4.3c0,0.6,0,1.1,0.3,1.6
	c0.6,0.8,2,1,3.1,0.6c1.1-0.4,1.8-1.1,2.6-1.9c3.1-3.2,6-6.6,8.7-10.1c-0.2,0.4-0.5,0.7-0.7,1.1c0.6,3.2,2.2,3.5,3.6,6.5
	c-0.2-1.1-26.4,32.2-35.3,52.7c-10.8,25,1.6,27.4-9.3,50.2c-8.4,17.5-16.4,19.5-25.3,40.6c-3,7.2-7.6,18.3-8.1,33.3
	c-0.3,9-0.7,25,10.1,42.4c11,17.8,27.8,27.6,36.2,31.8c-10.1-1.5-20.2-3-30.4-4.4c-9.9-1.4-23.1-0.6-25.7,10.3
	c-17.9-9.1-39.1-9.9-57.5-2.1c3.7-6.4,7.4-12.8,11.1-19.2c-0.4,0.8,24.5-74.9,13.4-110.9c-2.2-7.1-5.3-13.7-7.6-20.8
	c-2.3-7.1-3.9-14.8-8.1-20.5c-2.5-3.5-2.7-2.6-12-10.9c0,0-20.4-18.3-21.3-27.4c0-0.3-0.1-2.1-0.7-2.2c-0.2,0-0.4,0.2-0.4,0.2
	c-0.7,0.9,0.6,3.4,1.1,1.9c-1.3-1.3,7.1-3.7,5.8-5c9.4,7.9,18.9,15.9,28.3,23.8c2.5,2.1,5.3,4.3,8.3,3.7c3.5-0.7,5.7-5,6-9.1
	c0.2-4.2-1.1-4.5-2.5-12C-280,173.4-279.6,166.4-283.4,164.9z"/>
<path class="st1" d="M222.5-118.3c0.3,0.1,0.7,0.1,1,0.2c1.6,2.6,1.5,6,0.4,8.8c-1,2.9-2.9,5.4-4.7,7.8c-0.9,1.2-1.8,2.4-3.1,3.2
	c-2.6,1.5-5.9,0.8-8.7-0.4c-2.9-1.3-5.6-3-8.4-4.7c-4.7-2.8-9.6-5.3-14.7-7.5l1.7,1.6c-4.1-1.2-8.2-2-12.5-2.3
	c-1.1-0.1-2.2-0.1-3.1,0.4c-2.3,1.3-1.8,4.5-1.9,7.1c-0.2,4-2.7,7.8-6.3,9.6c-3.6,1.7-8.2,1.3-11.4-1.1l-0.2,1.6
	c-4.1,1.1-5.9,5.7-7.2,9.7c-1.3,4-3.5,8.6-7.7,9.2c-3.1,0.4-6-1.6-9.1-2.1c-2.9-0.4-5.8,0.5-8.5,1.5c-3.4,1.2-6.7,2.3-10.1,3.5
	l0.1,0c-1.4,4.6-8.5,6.7-11.5,2.9c-1.8-2.2-2.1-5.6-4.6-6.8c-3.8-1.8-7.4,3.4-11.5,3.6c-2.6-6.1,4.6-13.1,2.2-19.3
	c-3.2-8.2-17.7-4.4-22.3-11.9c-3-4.9,0.3-11.1,4-15.5c3.8-4.6,8-8.8,11.1-13.8c3.1-5,5.1-11.1,3.8-16.9c-0.9-4.2-3.5-8.8-1.3-12.5
	c-4.3-1.7-3.4-8.1-1.2-12.1s6.4-6.6,10-9.6c11.1-9.1,17.6-22.4,25.6-34.4c2.7-4,5.7-8.1,10.1-10.3c2.7-1.4,5.8-1.9,8.8-2.4
	c7.7-1.3,15.9-2.6,23.1,0.4c1.9,0.8,3.7,1.9,5.8,1.9c2.4,0,4.5-1.4,6.5-2.8c12.1-8.1,26.3-13,40.8-14.2c2.8-0.2,5.9-0.3,8.1,1.6
	c1.4,1.2,2.2,3,2.8,4.7c1.8,4.9,2.9,10,3.4,15.2c0.2,2.2,0.3,4.4,1.5,6.3c1.6,2.7,5,3.7,8.2,3.7c3.1,0,6.2-0.9,9.3-1.3
	c10.2-1.1,20.8,4.3,25.9,13.3c4.4,7.9,4.5,17.7,8.5,25.9c4.5,9.5,14.3,16.2,24.7,17c0.9,0.1,2,0.1,2.7,0.7c0.6,0.5,1,1.2,1.3,1.9
	c4.8,12.7-10.2,25.9-7,39.1c1.2,4.8,4.6,10.2,1.5,14.1c-1,1.3-2.6,2-4.2,2.6c-8.6,3.4-18,4.8-27.2,4.3c-1.9-0.1-3.9-0.3-5.8,0.2
	c-4.2,1.2-6.5,5.5-9,9.1c-0.4,0.6-0.9,1.2-1.6,1.6c-1.6,0.8-3.6-0.4-4.8-1.8c-5.6-6.2-5.5-15.6-3.4-23.7"/>
<path class="st0" d="M263.1,119.1c0-1.2,0.7-2,1.5-2.2c0.8-0.1,1.7,0.4,1.7,0.7c0,0-0.1,0.1-0.5,0.2c-0.8,2.4,1.6,4.9,4.5,5.5
	c2.9,0.6,5.9-0.1,8.6-1.1c2.7-1,5.3-2.2,8.3-2.5c-4.1,2.8-8.8,4.9-13.8,6.2c-6.4,0.2-23.3,1.4-27.6,10c-0.2,0.3-0.9,0.9-1,3.9
	c-0.3,10.1,0.6,20.2,2.5,30.3c0.5,2.4,1.6,5.4,4.6,5.8c1.2,0.2,2.4-0.2,3.6-0.5c5.8-1.8,11.6-3.5,17.4-5.3c-1.2-0.4-2.6-0.1-3.4,0.7
	c-8.9-1-9.7,5.9-17.8,9c-2.8,1.1-5.7,2.5-7.3,4.8c-1.1,1.6-1.6,3.4-1.9,5.2c-1.6,7.8-2.1,15.8-1.6,23.8c0.3,3.7,1.2,8,5,9.9
	c2.3,1.1,5,1.2,7.6,1c6.8-0.4,13.6-1.8,19.8-4.1c-11.1,2.9-13.8,10.9-23.3,16.4c-2.4,1.4-4.9,3-6.2,5.2c-1.3,2.2-1.3,4.7-1.3,7.1
	c0,16.8,0,33.6,0,50.5c10.2-4.1,19.8-9.1,28.6-15.1c-9.6,7.8-23.2,14.6-26.5,25.5c-1.2,3.9-0.3,8,0.5,11.9
	c11,52.2,15.9,105.3,14.7,158.1c-13.1-5.2-26.3-10.4-39.4-15.6c-0.9-6.7,0.5-13.6,4.1-19.6l0.5,0c4.9-65.3,4.6-130.9-0.7-196.3
	c-0.2-2.2-0.4-4.5-1.9-6.2c-1.8-2.2-5.1-3.1-8.2-3.9c-16-4-32.4-7.1-48.9-9.3c-1.2-0.2-2.6-0.5-3.1-1.4c-0.4-1,1.6-1.9,1.9-0.9
	c-1.3-0.9,1.6-6.1,0.2-6.9c17.2,1.1,34.4,2.2,51.6,3.3c1.7,0.1,3.6,0.2,5-0.6c1.7-1,2.2-2.9,2.5-4.6c1.9-10.4,2.7-21,2.2-31.6
	c-0.1-1.8-0.2-3.6-1.2-5.1c-1.2-1.9-3.6-3.1-5.8-4.2c-8.4-4.2-16.9-8.5-25.3-12.7c1.2,0.3,2.3,0.6,3.5,0.9l7.8-3.2
	c3.8,0.2,7.2,1.9,10.8,2.9c3.6,1,8.1,1.2,10.6-1.2c1.9-1.8,2.1-4.4,2.1-6.9c0.3-30.7,0.1-61.4-0.5-92.1c-2.6,22.2,6.9,34.9,10,57.2
	c0.5,3.6,2.1,8.1,6.4,8.5c2.2,0.2,4.2-0.8,6-1.7c4.6-2.4,9.3-4.7,13.9-7.1C263.7,120.9,263.4,120,263.1,119.1z"/>
<path class="st2" d="M212.3,283.3c-0.4,3.3-0.3,6.7,0.4,10c-2.6-1-4.8-2.5-6.3-4.3c-0.4,2.6-1.6,5.2-3.4,7.4
	c-4.1-2.6-7.2-6.1-8.8-9.8c0.3,1.6,0.6,3.2,0.9,4.8c-0.9-1.1-1.8-2.2-2.7-3.2c-1.3,4.3-1.5,8.8-0.6,13.3c-2.9-4-5.2-8.3-6.7-12.7
	c-0.2,2.7-0.4,5.4-0.5,8.1c-3.7-4.7-6.6-9.7-8.6-14.8c-1.3,5.4-2.5,10.7-3.8,16.1c-1-3-2-6.1-3-9.1c0.3,3.4-0.2,6.7-1.4,10
	c-1.3-4.1-3.1-8.2-5.3-12.1c-5.8,4.4-15.8,4.1-24,2.2s-16.1-5-24.6-5.4c12.9-5.3,29.2-3.5,44-4.9c21.8-2.1,40.6-11.4,58.6-20.4
	c2,3.7,3.8,7.4,5.5,11.1c0.4,0.8,0.6,1.9-0.3,2.5c-1,0.5-2.4-1.1-1.1-1.1c0.7,1.5,1.5,3,2.2,4.5c-1.4,0.1-2.8,0.2-4.2,0.3
	c6.6,2,12.3,5.6,15.9,10.1c0,0.6-11.6-6.2-12.5-7.1c2.2,3.4,6.2,7.3,5.5,10.8c-0.5,2.4-5.3,3.1-5.1,7.3
	C217.9,292.7,214.8,287.8,212.3,283.3z"/>
<path class="st2" d="M179.5,256.2c-8.9,1.9-18.5,2.8-27.2,0.1c-4.2-1.4-8.2-3.6-12.7-3.7c3.7,4.6,7.3,9.3,11,13.9
	c2.2-1.2,4-2.9,5.4-4.8c1.7,2.3,3.7,4.5,6,6.4c0.8-1.7,1.7-3.5,2.5-5.2c2.3,2.5,4.7,4.9,7,7.4c0-2.4-0.1-4.9-0.1-7.3
	c2.3,2.3,5.1,4.2,8.2,5.6c0.5-2.2,1-4.3,1.5-6.5c1.8,1.3,4.2,1.9,6.4,1.3c2.2-0.6,3.9-2.4,3.7-4.4c1.7,2.3,3.6,4.6,5.4,6.8
	c0.7-2.3,1.4-4.7,2.2-7c1.4,1.6,3.3,3,5.3,4.1c3-3.7,2.1-19.7-4.8-18.2c-1.6,0.4-3.9,5.5-5.3,6.6
	C190.2,253.9,184.2,255.2,179.5,256.2z"/>
<path class="st2" d="M128.8,188.1c1.6,11.4,4.5,22.7,8.6,33.6c1.7-3.4,3.5-6.8,5.2-10.1c-0.6,7,0.3,14.1,2.6,20.9
	c2.7-4.2,4.8-8.7,6.2-13.4c-2.7,5.4-4.2,11.3-4.1,17.3c1.4-6.1,4-11.9,7.5-17.3c1.7,9,3.3,18,5,27c4.1-5,6.8-11,7.5-17.1
	c0.2,6.4,2.2,12.7,5.8,18.2c2.3-2.5,3.9-5.4,4.7-8.5c2,3.9,4.6,14,10,13.6c5.1-0.4,6.4-9.1,7-12.2c1.6-8.1,1-15.2-7.7-19.7
	c-9.8-5.1-22.4-5.4-32.7-10.7C147.2,206,129.9,196,128.8,188.1z"/>
<path class="st2" d="M331.6,194.7c-1.6,6.5-2.1,13.2-1.5,19.8c-0.8-1.9-2.9-3.3-5.2-3.5c-0.4,4.9,0.5,9.9,2.8,14.4
	c-2.3-2.2-5.1-3.9-8.1-5.2c1.4,6.5,2.8,12.9,4.2,19.4c-5.5-5.7-10.3-12-14.3-18.6c1.6,7.5,2.4,15.1,2.3,22.7c-4.6-5-7.8-11-9.1-17.3
	c-0.4,8.5-2.2,16.9-5.1,24.9c-4.5-6.1-7.8-12.8-9.8-19.8c-4,7.4-6.7,15.3-8.1,23.4c-2.3-6.4-3.6-13.1-4-19.8
	c-0.2,3.5-0.8,6.9-1.8,10.3c0.8-6.3,0.3-12.8-1.3-19c-2.8,1.6-4.2,4.4-6.2,6.8c-7.9,9.1-16.2-2.4-7.9-9.2c5.8-4.8,15.4-3.1,22.8-3.8
	c10-0.9,19.7-3.7,28.4-8.1C315.8,209.1,330,201.3,331.6,194.7z"/>
<path class="st2" d="M300.8,260.1c2.1-2.8,2.4-6.4,3.4-9.6c1.5-4.9,4.6-9.5,8.9-13c-1.3,10.1-1.4,20.4-0.1,30.6
	c0.3,2,0.5,4.2-1.1,5.7c-1.7,1.5-4.7,1.2-6.6,0s-3.1-3.2-4.2-5.1c3,3.7,6,7.4,9,11.1c-2.9-1.7-5.8-3.4-8.8-5.2
	c0.2,4.7,0.1,9.4-0.2,14.1c-7.3-4.2-11.6-11.2-15.6-18c3.2,10.2,5.4,20.5,6.7,31c-4.6-7.1-7.7-14.9-9-23c3.2,8.5,5,17.4,5.1,26.4
	c-1.3,1-3.4-0.3-4.4-1.6c-3.9-4.8-6.6-10.2-8-15.9c2,6.4,2.4,13.2,1,19.7c-3.3-0.1-6.2-2.4-7.5-5.1c-1.3-2.7-1.3-5.7-1.4-8.6
	c1,2.4,1.3,5.1,0.9,7.7c-5.2-3.3-11.4-9.7-11.4-15.7c0-6.7,4.5-6.3,9.8-8.8c6.3-3.1,11-6.8,18-9
	C291.1,265.9,297.4,264.8,300.8,260.1z"/>
<path class="st2" d="M265.4,180.6c1.3,4.6,2.7,9.3,4,13.9c1.4-4.6,2.8-9.2,4.1-13.7c1.4,3.8,3.4,7.4,5.8,10.8
	c0.3-3.9,0.1-7.9-0.8-11.8c2.5,3.6,6.2,6.7,10.5,8.7c-0.5-4.5-0.9-8.9-1.4-13.4c3.3,3.4,7.2,6.4,11.6,8.8c0.6-4.4,0.5-8.9-0.3-13.4
	c3.3,1.2,6.7,2.3,10.2,3.2c2.5-3-2.4-8,0.6-10.7c1.4-1.3,3.9-1.1,5.3-2.3c1.7-1.4,1.2-3.9,2.4-5.6c1.3-1.8,4.1-2.4,5.3-4.2
	c1.9-2.9-1.4-6.4-1.6-9.8c-4.5,14.8-21.8,25.7-39.4,24.7c-13.1-0.8-15.8,2.1-20.1,12.1c-3,7-5.1,12.1-5.1,19.9
	C259.1,194.7,266.5,184.7,265.4,180.6z"/>
<path class="st2" d="M138.7,149.6c0.8-0.3,2-0.6,3.3-0.3c8.3,1.9,7.6,25.4,11,25.5c1.6,0,4.6-5.3,5.6-7.6c0.1-0.2,0.3-0.6,0.3-0.5
	c-1.4,4.9-2.3,9.9-2.9,14.9c0.5-2.7,1.4-5.3,2.6-7.8c-0.2,4.1,0.7,8.3,2.6,12.1c3.5-5.3,5.4-11.4,5.6-17.6
	c1.4,5.7,2.4,11.5,2.9,17.4c1.4-5.3,2.4-10.7,2.8-16.2c0.2,6.7,1.3,13.4,3.2,19.9c2-7.3,3.9-14.7,5.9-22c1.2,8.7,3.4,17.4,6.6,25.7
	c1.9-6.9,3.2-13.9,3.8-21c2.2,7.5,4.4,15,6.6,22.5c4.4-3.7,3.8-9.9,5.3-15.1c0.2-0.8,0.6-1.7,1.4-2.2c1.5-0.8,3.5,0.3,5.3,0.6
	c2.6,0.4,5.1-1.1,6.3-3.1c1.1-2,1-4.4,0.5-6.6c-2.3-9.2-13.2-16.1-23.9-15.2c-4.7,0.4-9.2,2.1-13.9,2.6c-7.2,0.8-14.9-1.3-20.2-5.7
	c-2.3-1.8-4.2-4.1-7.1-5.1c-2.9-1-7,0.1-7.3,2.7c-3.4-1.5-6.3-4-7.9-7C137.6,143.5,138.2,146.6,138.7,149.6z"/>
<path class="st3" d="M262.9,119.8c0.6,1.3,2,2.8,3.5,2.2c0.8-0.3,1.1-1.1,1.3-1.8c1-3.2,1.7-6.5,2.1-9.8c1,4.6,3.4,8.9,6.8,12.5
	c1-2.9,1.4-6,1-9c0.6,6.1,2.5,12.2,5.4,17.8c0.5,0.9,1.3,1.9,2.4,1.7c1-0.2,1.3-1.4,1.3-2.4c0-6.8,0.1-13.5,0.1-20.3
	c0,5.5,1.8,11,5.1,15.7c2-1.1,2.3-3.5,2.3-5.6c0-5.7,0.4-6.7,4.2-2.6c0.7-4.8,0.3-9.7-1.3-14.3c1.9,3,3.8,6.1,5.8,9.1
	c0.7,1.2,1.6,2.4,3,2.9c1.4,0.5,3.4-0.5,3.1-1.8c-1.2-4.9-2.5-9.7-3.7-14.6c-0.6,1.6,2.3,2.8,3.9,1.9c1.6-0.9,2.1-2.8,2.4-4.4
	c0.5-2.4,0.9-4.7,1.4-7.1c-2.2,1.8-4.4,3.7-6.5,5.5c-4.5,3.8-9.1,7.6-14.8,10c-4.3,1.8-9.1,2.6-13.8,3.4c-5.3,0.9-11.1,1.4-16.1,2.9
	C261.5,114.5,261.8,117.3,262.9,119.8z"/>
<path class="st2" d="M223.1,111.2c-1.3,6.8-4.4,13.3-9,18.9c-2.6-6.9-3.5-14.1-2.7-21.3c-1.5,4.1-2.9,8.1-4.4,12.2
	c-0.2-4.9-0.5-9.9-0.7-14.8c-1.2,1.5-2.4,3-4.2,4c-1.8,1-4.3,1.2-5.9,0c-3.4-2.4-0.5-7.8-3.3-10.7c-5.4,2.2-12.1,1.6-16.9-1.6
	c-4.8-3.1-7.4-8.6-6.5-13.7c12.2,10.2,29.8,13.5,46.3,16.2c4.8,0.8,9.6,1.6,14.4,2.4L223.1,111.2z"/>
<path class="st2" d="M249.5,94.9c2,1.8,2.8,4.3,4,6.6c1.1,2.3,3.1,4.6,5.9,5c1-4.3,1.1-8.8,0.4-13.2c1.2,2,3,3.7,5.2,4.9
	c0.2-3.1,0.4-6.2,0.6-9.2c2.2,1.1,4.4,2.2,6.6,3.3c0.4,0.2,1,0.4,1.4,0.2c0.5-0.2,0.4-1,0.4-1.2c-0.1-2.8-5.4-7-4.7-10
	c0.4-1.7,2.3-1.3,3.7-3.6c1.7-2.7-0.7-10.1-0.6-8.1c0.3,3.6-20.3,17.1-23.7,20.6c-4.7,4.9-8,12.3-4.2,18.6
	C247.5,105.6,248.3,99.1,249.5,94.9z"/>
<path class="st2" d="M192.6,55.8c1.1,6.6,2.8,13.2,5,19.7c1.3-0.8,2.8-1.5,4.4-2c1.3,2.5,2.7,5.1,4,7.6c1.3-0.7,2.4-1.8,3.5-2.8
	c3.7,1.5,9.7,13.3,14.5,11.6c3.5-1.2-1-6.1-2.4-7.8C214.2,72.8,194.6,67.4,192.6,55.8z"/>
<path class="st2" d="M203.7,55.7c-0.6,0.6-0.4,1.6,0.3,2.1c-1.2-4-2.5-8-4.1-12c6.5,5.3,13.1,10.7,19.6,16c1.6,1.3,3.8,2.7,5.7,1.8
	c-5.1-6.3-10.2-12.7-15.3-19c3.6-2.3,4.3-6.7,3.8-10.6s-1.7-7.8-0.8-11.6c7.1,8.3,14.6,17.5,14.2,27.7c-0.1,2-0.5,4-0.1,6
	c0.3,2,1.6,4,3.7,4.7c0.7-0.4,1.2-1.1,1.4-1.9c-0.1,5-0.3,10-0.4,14.9c2-4.3,3.1-9,3.1-13.7c0.9,3.9,2.2,7.8,3.8,11.5
	c0.1-2.8,0.3-5.5,0.4-8.3c2.5,2.2,5.4,4,8.5,5.4c0.8,0.4,1.8,0.7,2.6,0.2c0.9-0.6,0.6-1.8,0.2-2.7c-2.1-4.7-4.2-9.4-6.4-14.1
	c1.6,1.1,3.6,1.7,5.6,1.7c-2.1-5-5.2-9.6-9.1-13.7c3.3,3.4-8,22.1-12.2,24.4C219.3,69.8,209.8,60.9,203.7,55.7z"/>
<path class="st2" d="M223.9,150c-1.8,4.5-3.5,9-5.3,13.4c-0.9-4.7-1.9-9.4-2.8-14.1c-1.8,3.6-4,7-6.8,10.2c0-3.9,0.7-7.9,1.9-11.7
	c-2.9,3.4-6.8,6.1-11.3,7.7c0.9-4.4,1.7-8.8,2.6-13.2c-3.6,3.1-7.8,5.7-12.3,7.6c-0.2-4.5,0.4-8.9,1.5-13.3
	c-3.4,0.9-6.9,1.7-10.4,2.3c-2.2-3.2,3.1-7.7,0.4-10.7c-1.3-1.4-3.8-1.5-5.1-2.8c-1.5-1.5-0.9-4-1.9-5.8c-1.1-1.9-3.9-2.8-4.9-4.7
	c-1.6-3.1,2-6.2,2.6-9.6c3,15.2,19.3,27.6,36.9,28.3c13.2,0.5,15.6,3.5,18.9,14c2.3,7.3,4,12.6,3.2,20.3
	C228.8,164.6,222.4,153.9,223.9,150z"/>
<path class="st2" d="M195.5,323.6c-2.3,3.9-3.9,8-5,12.3c-2.7-2-4.6-4.6-5.4-7.3c-1.9,3-4.7,5.8-8.2,7.9c-3.7-4.5-5.6-9.7-5.6-14.8
	c-0.5,2-1,4.1-1.5,6.1c-0.5-1.6-1.1-3.2-1.6-4.8c-3.9,4.8-6.6,10.3-8,15.9c-1.4-5.9-1.9-11.8-1.4-17.7c-1.7,3.2-3.4,6.5-5.1,9.7
	c-2.1-6.9-2.9-13.9-2.6-20.8c-4.5,6.1-8.9,12.2-13.4,18.3c0.4-4,0.8-8,1.2-12c-1.5,4.2-3.9,8.1-7.1,11.6c0.6-5.4,0.6-10.9,0.1-16.4
	c-8.2-5.4-16.4-10.9-24.6-16.3l0,0c7,2,14.8,3.7,23.4,5c35.4,5.2,65.4-0.7,83.4-5.8c0.5,5.1,0.7,10.2,0.8,15.3
	c0,1.2-0.3,2.6-1.7,2.9c-1.5,0.3-2.3-2.1-0.8-1.7c0.1,2.1,0.2,4.1,0.3,6.2c-1.8-0.3-3.6-0.6-5.4-1c4.8,3,10.4,7.1,15.7,12.5
	c2.5,2.5,4.5,5,6.2,7.3c4.8,8.2,6.7,12.6,5.8,12.9c-1.4,0.6-9.7-8.8-25.2-28c0.9,4.8,3.7,10.9,0.9,14.9c-1.9,2.8-8.3,2.1-10.3,7.2
	C197.3,336.9,196.1,329.9,195.5,323.6z"/>
<path class="st0" d="M299,302.6c1.8,0.3,3.6,0.6,5.3,0.1c1.8-0.5,3-1.9,4.2-3c5.1-4.5,13.5-5.7,20.2-8.6c6.4-2.8,11.4-7.2,16.2-11.6
	c-1.8,5.5-4.9,10.7-9.1,15.2c-0.4,0.5-0.9,1-1,1.6c-0.1,0.5,0.1,1,0.3,1.5c1.9,4.3,3.7,8.6,5.6,12.9c-2.7-2.6-5.4-5.4-7.8-8.1
	c0.9,5.4,1.8,10.8,2.7,16.2c-2.9-4.4-5.7-8.9-8.6-13.3c0.5,5.8,0.3,11.5-0.7,17.2c-0.3,2-1,4.3-3.3,5.2c-3-7.4-1-15.8-5.3-22.8
	c-0.3,2.1-0.6,4.3-1,6.4c-0.5-2.3-1.9-4.4-3.9-6.1c-1.7,2.5-1.8,5.6-0.2,8.2c-1-0.7-1.9-1.3-2.9-2c-0.7,3-1.4,6-2.2,9
	c-2-1.8-3.2-4.1-3.3-6.4c-0.2,3.2-1.4,6.3-3.4,9c0.1-3.3-0.4-6.7-1.6-9.9c-2.2,7.3-4.6,14.9-10.5,20.7c1.8-7,3-14.2,3.5-21.3
	c-2.1,5.1-4.9,10-8.5,14.6c-1.6,2-3.5,4.1-6.4,4.9c-1.6-4.7-1.4-9.8,0.7-14.3c-0.8,5.7-4.5,11-10.1,14.6c1.3-6.7,2.6-13.3,3.9-20
	c-2.4,3.6-5.1,7.1-7.9,10.5c-1.5,1.8-3.5,3.8-6.3,3.9c-2.7,0-5.1-2-5.6-4.1c-1.7-7.3,7.7-13.8,15-16.6
	C276.8,302.2,288.2,301,299,302.6z"/>
<path class="st0" d="M-352.2,213.5c2.3-3.1,2.5-6.9,0.5-10c-7.6,3.7-13.8,8.8-18.2,14.6c3.4-5.5,3.5-12,0.4-17.6
	c-8.8,0.4-17.1,4.3-21.1,9.9c2.9-4,4.1-8.6,3.5-13.1c-7.7,0.4-15.3,0.8-23,1.2c4.4-2.8,5.5-7.9,2.6-11.5c-3-3.6-9.7-5.4-15.3-4.1
	c3.1,0.6,6.6-1,7.2-3.2c-3.4-2.8-7.6-5.1-12.3-6.7c5.1-0.2,10.2-0.4,15.3-0.7c-3.5-7.5-10.1-14.2-18.7-19.1
	c6.4,1.1,11.6-4.8,9.9-9.3c-1.7-4.5-7.3-7.6-12.6-10.4c6.2,1.3,13.5-1.7,15.1-6.1c1.6-4.4-2.8-9.5-9.1-10.5
	c4.8,0.1,9.6,0.2,14.5,0.3c2.2-6.4,0.8-13.3-3.9-19c2.5,5.7,15.5,5,20.1,0c4.6-5,3.4-11.5,1.9-17.4c8.7,1.9,18.9-0.6,24.2-5.8
	c5.3-5.3,5.3-12.9-0.1-18.1c8.2,0,16.2-3.5,19.9-8.7c-5.8-4.4-13.4-7.6-21.6-9.3c9.2,1.1,14.5-10.2,6.2-13.2
	c4.6,0.8,9.2,1.5,13.8,2.3c2.7-3,2.6-7.1-0.2-10c2.3,3,6,5.5,10.3,7c1.7-5.7,0.8-11.8-2.4-17.1c1.8,4.1,5.4,7.8,10.1,10.5
	c4.1-7.2,5.6-15.3,4.1-23c2.9,7.1,8.5,13.6,16.2,18.6c2.6-4.3,3.5-9.1,2.8-13.8c3,5.7,9.7,10.3,17.8,12.2c1.4-7,1.9-14.2,1.4-21.2
	c2.2,4.6,5.8,9,10.4,12.6c1.5-3.3,2.2-6.8,1.9-10.2c6.4-2.6,10.2-8.2,8.9-13.4c1.8,6.7,6.7,13,13.8,17.7c1.4,0.9,3.2,1.8,5,1.5
	c2.1-0.4,2.9-2.2,3.4-3.7c1.3-3.9,2.6-7.9,3.9-11.8c-2.7,8.9,2.3,18.7,12.4,24.2c2.3-6.7,4.6-13.4,6.8-20.1
	c1.6,5.1,3.9,11,10.6,13.2s16.4-4,11.3-7.8c-0.2,6.2,6.1,12.1,14.4,13.7c1.8-2.2,3.7-4.5,5.5-6.7c-1.9,7.8,12.5,14.7,22,10.5
	c-6.3,5.1-7.7,13-3.3,19c6.4-2.4,11-7.2,11.9-12.3c-3.5,4-4.4,9.7,0,13.3s14.5,2.7,15.8-1.9c-8.4,2-6.1,11.9,2,14.5
	c8,2.5,17.3,0.2,25.5-2.2c0.1,5.6,13.6,7.6,16.8,2.4c-3.8,2.5-7.8,5.4-8.1,9.1s5.7,7.5,9.9,5.4c-1.9,2.6-3.9,5.8-1.9,8.4
	c2,2.6,9.5,1.6,8.3-1.3c-3.7,5.3,0.5,12.6,8.3,14.5c-5-1.9-10,4.1-6.8,7.5c3.2,3.4,9.7,4,15.4,4.1c-2.5,0.6-5,1.2-7.4,1.8
	c4.7,5.5,11.6,10,19.6,12.9c-5.7,0.5-11.5,1-17.2,1.5c2.5,4.8,6.3,9.2,11.2,13c-3.2-2-7.7-2.8-11.9-2.3c2.9,4.4,5.7,8.8,8.6,13.1
	c-4.1-0.2-8.2-0.5-12.2-0.7c0.1,6.1,1.8,12.2,4.9,17.9c-1.1-3.9-5.2-7.2-10.5-8.4c-6.3,8.9-7.6,19.6-3.5,29.1
	c3.4-5.4-3.5-12.5-11.7-12.1s-14,7.9-9.8,13c2.2-5.6-9.1-9.8-16.4-7.4c-7.4,2.5-10.9,8.4-13.8,13.8c0.9-4.9,0.3-10-1.5-14.7
	c-3.6,1.2-6.6,3.3-8.3,5.8c2.4-7.8,2.2-15.9-0.5-23.6c-5.3,0.7-9.8,3.8-10.9,7.6c4.3-2.7,7.7-6.5,7.5-10.6s-4.9-8.1-10.7-8
	c-5.7,0.1-10,5.7-6.1,8.7c0.2-2.7-0.4-5.5-1.6-8.1c-6.8,7.6-11,16.3-12,25.3c-1.2-4.9-3.9-9.6-7.8-13.7c-3.3,4.5-5,9.6-4.9,14.7
	c-0.6-6.7-5.9-13.1-13.9-16.8c-4,3.3-5.8,7.8-4.8,12.1c-0.1-3.5-2.8-6.8-6.9-8.7c-4.7,5.6-5,12.8-0.9,18.6c-0.6-2.5-1.3-5.2-4-6.8
	s-7.9-1.2-8.6,1.2c0.8-9.4-2-19-8.1-27.4c-4.2,0.7-7.2,3.9-6.4,6.9c2.7-8.1-3-17.3-13.2-21.3c-3.1,3.5-3.7,8-1.6,11.9
	c-2.6-3.2-8.1-5.1-13.3-4.6c-0.5,6.7,2.3,13.5,7.8,19c-3.4-1.6-6.7-3.2-10.1-4.8c8.2,4.9,18.8,7.9,29.5,8.3
	c-8.1-1.5-17.2,0.1-23.4,4c6.1,3.2,13.8,5,21.4,4.9c-9.4-0.8-19.2,2.2-24.8,7.6c5.3,3.6,12.2,6.1,19.5,6.9c-6.2-2.6-13.4-4-20.7-4.1
	c-1.2,7-0.3,14.1,2.7,20.8c-0.5-8.2-3-16.4-7.6-23.9c-3.1,5.3-4.4,11.2-3.7,17c2.8-7.7,0.2-16.2-6.8-22.4c-5.5,7-8,15.1-7,23.1
	c0.6-4.5-0.5-9.1-3.1-13.2c-8.7,3.8-12.6,12.4-8.4,19c5.2-4.5,6.4-11.2,2.9-16.5c-0.3-0.4-11.4,14.9-11.8,17.2
	c-1.2,6.3,0.8,12.7,3.8,18.4c-7.9-1.8-10.6-7.8-15.5-11.9C-343.7,197.4-350.9,205.5-352.2,213.5z"/>
</svg>
